HIERARCHY
ROOT Root
{
	OFFSET 0.00000 0.00000 0.00000
	CHANNELS 6 Xposition Yposition Zposition Zrotation Xrotation Yrotation
	JOINT Hips
	{
		OFFSET 0 0 0	
		CHANNELS 3 Zrotation Xrotation Yrotation
		JOINT Spine
		{
			OFFSET 0 4 0	
			CHANNELS 3 Zrotation Xrotation Yrotation
			JOINT Spine1
			{
				OFFSET 0 19.4 0	
				CHANNELS 3 Zrotation Xrotation Yrotation
				JOINT Spine2
				{
					OFFSET 0 16.6 0	
					CHANNELS 3 Zrotation Xrotation Yrotation
					JOINT LeftCollar
					{
						OFFSET 0 10 0	
						CHANNELS 3 Zrotation Xrotation Yrotation
						JOINT LeftArm
						{
							OFFSET 15.6 -2 3	
							CHANNELS 3 Zrotation Xrotation Yrotation
							JOINT LeftForeArm
							{
								OFFSET 3.5 -27 -1	
								CHANNELS 3 Zrotation Xrotation Yrotation
								JOINT LeftHand
								{
									OFFSET 1 -27 1	
									CHANNELS 3 Zrotation Xrotation Yrotation
									End Site
									{
										OFFSET 0 -15 0
									}
								}
							}
						}
					}
					JOINT RightCollar
					{
						OFFSET 0 10 0	
						CHANNELS 3 Zrotation Xrotation Yrotation
						JOINT RightArm
						{
							OFFSET -15.6 -2 3	
							CHANNELS 3 Zrotation Xrotation Yrotation
							JOINT RightForeArm
							{
								OFFSET -3.5 -27 -1	
								CHANNELS 3 Zrotation Xrotation Yrotation
								JOINT RightHand
								{
									OFFSET -1 -27 1	
									CHANNELS 3 Zrotation Xrotation Yrotation
									End Site
									{
										OFFSET 0 -15 0
									}
								}
							}
						}
					}
					JOINT Neck
					{
						OFFSET 0 10 0	
						CHANNELS 3 Zrotation Xrotation Yrotation
						JOINT Head
						{
							OFFSET 0 12.7 3	
							CHANNELS 3 Zrotation Xrotation Yrotation
							End Site
							{
								OFFSET 0 12.7 3
							}
						}
					}
				}
			}
		}
	}
	JOINT LeftHip
	{
		OFFSET 0 0 0	
		CHANNELS 3 Zrotation Xrotation Yrotation
		JOINT LeftUpLeg
		{
			OFFSET 8.8 -6 0	
			CHANNELS 3 Zrotation Xrotation Yrotation
			JOINT LeftLeg
			{
				OFFSET 0 -39 2	
				CHANNELS 3 Zrotation Xrotation Yrotation
				JOINT LeftFoot
				{
					OFFSET 0 -43 -2	
					CHANNELS 3 Zrotation Xrotation Yrotation
					JOINT LeftFootFront
					{
						OFFSET 0 -7 8.5	
						CHANNELS 3 Zrotation Xrotation Yrotation
						End Site
						{
							OFFSET 0 -0.5 9
						}
					}
				}
				JOINT LeftHeel
				{
					OFFSET 0 -43 -2	
					CHANNELS 3 Zrotation Xrotation Yrotation
					End Site
					{
						OFFSET 0 -7.5 -5
					}
				}
			}
		}
	}
	JOINT RightHip
	{
		OFFSET 0 0 0	
		CHANNELS 3 Zrotation Xrotation Yrotation
		JOINT RightUpLeg
		{
			OFFSET -8.8 -6 0	
			CHANNELS 3 Zrotation Xrotation Yrotation
			JOINT RightLeg
			{
				OFFSET 0 -39 2	
				CHANNELS 3 Zrotation Xrotation Yrotation
				JOINT RightFoot
				{
					OFFSET 0 -43 -2	
					CHANNELS 3 Zrotation Xrotation Yrotation
					JOINT RightFootFront
					{
						OFFSET 0 -7 8.5	
						CHANNELS 3 Zrotation Xrotation Yrotation
						End Site
						{
							OFFSET 0 -0.5 9
						}
					}
				}
				JOINT RightHeel
				{
					OFFSET 0 -43 -2	
					CHANNELS 3 Zrotation Xrotation Yrotation
					End Site
					{
						OFFSET 0 -7.5 -5
					}
				}
			}
		}
	}
}
MOTION
Frames: 24
Frame Time: 0.05
0 95.5 0 -0 0 -0 -0 0 -0 -0 0 -0 -1.0364 -0.46081 19.95 -0 0 -0 -0 0 -0 30.449 -10.363 120.52 -87.684 17.694 -47.851 -0 0 -0 -0 0 -0 23.035 -41.408 -1.1609 84.123 -73.418 56.2 -0 0 -0 -0.66388 -14.394 3.3288 -0.66388 -14.394 3.3288 -0 0 -0 -0 0 -0 -0 0 -0 -0 0 -0 -0 0 -0 -0 0 -0 -0 0 -0 -0 0 -0 -0 0 -0 -0 0 -0 -0 0 -0 -0 0 -0 
0 95.5 0 -0 0 -0 -0 0 -0 -0 0 -0 -0.93258 -0.86806 19.822 -0 0 -0 -0 0 -0 31.044 -11.067 116.48 -87.269 24.008 -39.767 -0 0 -0 -0 0 -0 25.688 -42.85 2.944 71.164 -70.985 43.43 -0 0 -0 -0.54247 -13.557 3.3856 -0.54247 -13.557 3.3856 -0 0 -0 -0 0 -0 -0 0 -0 -0 0 -0 -0 0 -0 -0 0 -0 -0 0 -0 -0 0 -0 -0 0 -0 -0 0 -0 -0 0 -0 -0 0 -0 
0 95.5 0 -0 0 -0 -0 0 -0 -0 0 -0 -1.1941 -1.1443 19.66 -0 0 -0 -0 0 -0 31.971 -12.018 112.41 -85.372 26.813 -36.492 -0 0 -0 -0 0 -0 27.966 -44.35 5.6566 61.829 -68.022 34.326 -0 0 -0 -0.10974 -12.619 3.2258 -0.10974 -12.619 3.2258 -0 0 -0 -0 0 -0 -0 0 -0 -0 0 -0 -0 0 -0 -0 0 -0 -0 0 -0 -0 0 -0 -0 0 -0 -0 0 -0 -0 0 -0 -0 0 -0 
0 95.5 0 -0 0 -0 -0 0 -0 -0 0 -0 -1.4885 -1.381 19.405 -0 0 -0 -0 0 -0 32.915 -12.637 108.56 -83.617 25.814 -35.925 -0 0 -0 -0 0 -0 29.352 -45.99 7.0934 55.759 -65.159 26.693 -0 0 -0 0.5786 -11.49 2.7781 0.5786 -11.49 2.7781 -0 0 -0 -0 0 -0 -0 0 -0 -0 0 -0 -0 0 -0 -0 0 -0 -0 0 -0 -0 0 -0 -0 0 -0 -0 0 -0 -0 0 -0 -0 0 -0 
0 95.5 0 -0 0 -0 -0 0 -0 -0 0 -0 -1.7514 -1.5022 19.132 -0 0 -0 -0 0 -0 33.982 -13.078 105.74 -82.558 22.344 -35.826 -0 0 -0 -0 0 -0 29.616 -47.66 7.7561 50.872 -63.539 20.783 -0 0 -0 1.3379 -10.537 2.1886 1.3379 -10.537 2.1886 -0 0 -0 -0 0 -0 -0 0 -0 -0 0 -0 -0 0 -0 -0 0 -0 -0 0 -0 -0 0 -0 -0 0 -0 -0 0 -0 -0 0 -0 -0 0 -0 
0 95.5 0 -0 0 -0 -0 0 -0 -0 0 -0 -1.9348 -1.6122 18.704 -0 0 -0 -0 0 -0 35.069 -13.339 104.65 -81.121 18.244 -37.028 -0 0 -0 -0 0 -0 28.635 -49.201 7.2016 47.304 -62.097 16.509 -0 0 -0 2.012 -9.9722 1.7851 2.012 -9.9722 1.7851 -0 0 -0 -0 0 -0 -0 0 -0 -0 0 -0 -0 0 -0 -0 0 -0 -0 0 -0 -0 0 -0 -0 0 -0 -0 0 -0 -0 0 -0 -0 0 -0 
0 95.5 0 -0 0 -0 -0 0 -0 -0 0 -0 -2.0437 -1.4483 18.329 -0 0 -0 -0 0 -0 36.1 -13.392 105.97 -80.167 16.054 -37.814 -0 0 -0 -0 0 -0 27.036 -50.702 6.3791 43.446 -60.924 12.681 -0 0 -0 2.396 -9.8821 1.6119 2.396 -9.8821 1.6119 -0 0 -0 -0 0 -0 -0 0 -0 -0 0 -0 -0 0 -0 -0 0 -0 -0 0 -0 -0 0 -0 -0 0 -0 -0 0 -0 -0 0 -0 -0 0 -0 
0 95.5 0 -0 0 -0 -0 0 -0 -0 0 -0 -2.123 -0.98213 18.377 -0 0 -0 -0 0 -0 37.339 -13.368 108.71 -80.397 15.744 -36.633 -0 0 -0 -0 0 -0 24.737 -52.489 4.5689 40.815 -59.687 9.9376 -0 0 -0 2.5618 -10.228 1.5118 2.5618 -10.228 1.5118 -0 0 -0 -0 0 -0 -0 0 -0 -0 0 -0 -0 0 -0 -0 0 -0 -0 0 -0 -0 0 -0 -0 0 -0 -0 0 -0 -0 0 -0 -0 0 -0 
0 95.5 0 -0 0 -0 -0 0 -0 -0 0 -0 -2.3396 -0.62586 18.491 -0 0 -0 -0 0 -0 39.054 -12.94 111.33 -81.276 15.795 -35.567 -0 0 -0 -0 0 -0 22.496 -53.736 2.6439 39.314 -58.769 7.2995 -0 0 -0 2.8074 -10.628 1.4701 2.8074 -10.628 1.4701 -0 0 -0 -0 0 -0 -0 0 -0 -0 0 -0 -0 0 -0 -0 0 -0 -0 0 -0 -0 0 -0 -0 0 -0 -0 0 -0 -0 0 -0 -0 0 -0 
0 95.5 0 -0 0 -0 -0 0 -0 -0 0 -0 -2.488 -0.33857 18.552 -0 0 -0 -0 0 -0 40.798 -12.354 113.53 -82.348 16.002 -35.185 -0 0 -0 -0 0 -0 20.735 -54.38 1.0528 36.961 -58.268 5.2978 -0 0 -0 3.0337 -10.881 1.3798 3.0337 -10.881 1.3798 -0 0 -0 -0 0 -0 -0 0 -0 -0 0 -0 -0 0 -0 -0 0 -0 -0 0 -0 -0 0 -0 -0 0 -0 -0 0 -0 -0 0 -0 -0 0 -0 
0 95.5 0 -0 0 -0 -0 0 -0 -0 0 -0 -2.5896 -0.1708 18.779 -0 0 -0 -0 0 -0 42.341 -11.944 114.97 -83.15 16.293 -35.914 -0 0 -0 -0 0 -0 19.205 -54.415 -0.44778 36.163 -57.937 2.9032 -0 0 -0 3.1108 -11.017 1.1719 3.1108 -11.017 1.1719 -0 0 -0 -0 0 -0 -0 0 -0 -0 0 -0 -0 0 -0 -0 0 -0 -0 0 -0 -0 0 -0 -0 0 -0 -0 0 -0 -0 0 -0 -0 0 -0 
0 95.5 0 -0 0 -0 -0 0 -0 -0 0 -0 -2.6476 -0.04844 18.961 -0 0 -0 -0 0 -0 43.501 -11.663 115.49 -83.701 15.891 -37.376 -0 0 -0 -0 0 -0 18.522 -53.953 -1.431 35.624 -57.942 1.7045 -0 0 -0 3.0927 -11.073 0.9955 3.0927 -11.073 0.99551 -0 0 -0 -0 0 -0 -0 0 -0 -0 0 -0 -0 0 -0 -0 0 -0 -0 0 -0 -0 0 -0 -0 0 -0 -0 0 -0 -0 0 -0 -0 0 -0 
0 95.5 0 -0 0 -0 -0 0 -0 -0 0 -0 -2.5741 -0.013315 18.998 -0 0 -0 -0 0 -0 44.721 -11.36 115.17 -84.033 14.735 -38.054 -0 0 -0 -0 0 -0 18.329 -53.091 -2.0075 35.434 -58.562 1.4771 -0 0 -0 3.0504 -11.039 0.95336 3.0504 -11.039 0.95335 -0 0 -0 -0 0 -0 -0 0 -0 -0 0 -0 -0 0 -0 -0 0 -0 -0 0 -0 -0 0 -0 -0 0 -0 -0 0 -0 -0 0 -0 -0 0 -0 
0 95.5 0 -0 0 -0 -0 0 -0 -0 0 -0 -2.4767 -0.13236 19.157 -0 0 -0 -0 0 -0 45.077 -11.588 115.14 -84.124 14.324 -38.707 -0 0 -0 -0 0 -0 18.35 -52.052 -2.6347 35.723 -59.423 1.8505 -0 0 -0 3.0112 -10.851 0.86048 3.0112 -10.851 0.86047 -0 0 -0 -0 0 -0 -0 0 -0 -0 0 -0 -0 0 -0 -0 0 -0 -0 0 -0 -0 0 -0 -0 0 -0 -0 0 -0 -0 0 -0 -0 0 -0 
0 95.5 0 -0 0 -0 -0 0 -0 -0 0 -0 -2.3418 -0.070415 19.029 -0 0 -0 -0 0 -0 45.11 -12.027 115.36 -84.448 14.268 -38.403 -0 0 -0 -0 0 -0 19.121 -51.046 -2.35 35.647 -60.5 2.993 -0 0 -0 2.9552 -10.789 0.949 2.9552 -10.789 0.94901 -0 0 -0 -0 0 -0 -0 0 -0 -0 0 -0 -0 0 -0 -0 0 -0 -0 0 -0 -0 0 -0 -0 0 -0 -0 0 -0 -0 0 -0 -0 0 -0 
0 95.5 0 -0 0 -0 -0 0 -0 -0 0 -0 -2.2822 -0.016587 18.97 -0 0 -0 -0 0 -0 44.919 -12.751 115.28 -85.11 14.353 -37.081 -0 0 -0 -0 0 -0 20.052 -49.96 -1.9065 35.522 -62 4.7423 -0 0 -0 2.9019 -10.815 1.0229 2.9019 -10.815 1.0229 -0 0 -0 -0 0 -0 -0 0 -0 -0 0 -0 -0 0 -0 -0 0 -0 -0 0 -0 -0 0 -0 -0 0 -0 -0 0 -0 -0 0 -0 -0 0 -0 
0 95.5 0 -0 0 -0 -0 0 -0 -0 0 -0 -2.2894 0.016907 18.938 -0 0 -0 -0 0 -0 44.712 -13.633 115.22 -85.881 14.374 -35.546 -0 0 -0 -0 0 -0 21.139 -48.783 -1.3547 36.106 -63.496 7.0138 -0 0 -0 2.8445 -10.847 1.0927 2.8445 -10.847 1.0927 -0 0 -0 -0 0 -0 -0 0 -0 -0 0 -0 -0 0 -0 -0 0 -0 -0 0 -0 -0 0 -0 -0 0 -0 -0 0 -0 -0 0 -0 -0 0 -0 
0 95.5 0 -0 0 -0 -0 0 -0 -0 0 -0 -2.2184 -0.028233 18.926 -0 0 -0 -0 0 -0 44.465 -14.572 115.18 -86.935 14.414 -33.22 -0 0 -0 -0 0 -0 21.96 -47.543 -1.1912 38.373 -64.707 9.5131 -0 0 -0 2.7428 -10.873 1.129 2.7428 -10.873 1.129 -0 0 -0 -0 0 -0 -0 0 -0 -0 0 -0 -0 0 -0 -0 0 -0 -0 0 -0 -0 0 -0 -0 0 -0 -0 0 -0 -0 0 -0 -0 0 -0 
0 95.5 0 -0 0 -0 -0 0 -0 -0 0 -0 -2.1842 -0.091933 19.034 -0 0 -0 -0 0 -0 44.369 -15.688 114.98 -87.766 14.235 -31.457 -0 0 -0 -0 0 -0 22.692 -46.596 -1.3299 41.329 -65.457 11.792 -0 0 -0 2.6097 -10.94 1.0932 2.6097 -10.94 1.0932 -0 0 -0 -0 0 -0 -0 0 -0 -0 0 -0 -0 0 -0 -0 0 -0 -0 0 -0 -0 0 -0 -0 0 -0 -0 0 -0 -0 0 -0 -0 0 -0 
0 95.5 0 -0 0 -0 -0 0 -0 -0 0 -0 -2.1685 -0.19683 19.146 -0 0 -0 -0 0 -0 44.539 -16.734 114.64 -87.816 13.684 -31.583 -0 0 -0 -0 0 -0 23.373 -45.553 -1.3677 45.374 -66.293 14.251 -0 0 -0 2.4244 -11.005 1.0678 2.4244 -11.005 1.0678 -0 0 -0 -0 0 -0 -0 0 -0 -0 0 -0 -0 0 -0 -0 0 -0 -0 0 -0 -0 0 -0 -0 0 -0 -0 0 -0 -0 0 -0 -0 0 -0 
0 95.5 0 -0 0 -0 -0 0 -0 -0 0 -0 -2.0968 -0.20254 19.15 -0 0 -0 -0 0 -0 44.964 -17.465 114.35 -87.009 12.939 -33.299 -0 0 -0 -0 0 -0 23.833 -44.576 -0.87628 48.691 -67.404 16.258 -0 0 -0 2.0782 -11.089 1.1111 2.0782 -11.089 1.1111 -0 0 -0 -0 0 -0 -0 0 -0 -0 0 -0 -0 0 -0 -0 0 -0 -0 0 -0 -0 0 -0 -0 0 -0 -0 0 -0 -0 0 -0 -0 0 -0 
0 95.5 0 -0 0 -0 -0 0 -0 -0 0 -0 -1.9574 -0.31555 19.104 -0 0 -0 -0 0 -0 45.523 -17.663 114.12 -85.862 12.137 -35.244 -0 0 -0 -0 0 -0 24.024 -43.975 -0.6746 48.891 -68.272 17.827 -0 0 -0 1.9475 -11.018 1.1019 1.9475 -11.018 1.1019 -0 0 -0 -0 0 -0 -0 0 -0 -0 0 -0 -0 0 -0 -0 0 -0 -0 0 -0 -0 0 -0 -0 0 -0 -0 0 -0 -0 0 -0 -0 0 -0 
0 95.5 0 -0 0 -0 -0 0 -0 -0 0 -0 -1.9114 -0.38477 19.014 -0 0 -0 -0 0 -0 46.101 -17.558 114.33 -85.378 11.605 -35.732 -0 0 -0 -0 0 -0 23.98 -43.969 -1.3037 48.782 -68.246 18.541 -0 0 -0 1.9456 -10.956 1.1053 1.9456 -10.956 1.1053 -0 0 -0 -0 0 -0 -0 0 -0 -0 0 -0 -0 0 -0 -0 0 -0 -0 0 -0 -0 0 -0 -0 0 -0 -0 0 -0 -0 0 -0 -0 0 -0 
0 95.5 0 -0 0 -0 -0 0 -0 -0 0 -0 -1.8693 -0.46622 18.813 -0 0 -0 -0 0 -0 46.533 -17.176 114.74 -84.903 11.163 -36.94 -0 0 -0 -0 0 -0 23.705 -44.306 -2.5932 48.483 -67.413 17.932 -0 0 -0 2.0199 -10.799 1.1625 2.0199 -10.799 1.1625 -0 0 -0 -0 0 -0 -0 0 -0 -0 0 -0 -0 0 -0 -0 0 -0 -0 0 -0 -0 0 -0 -0 0 -0 -0 0 -0 -0 0 -0 -0 0 -0 
